Format : AVI
Format/Info : Audio Video Interleave
File size : 1.64 GiB
Duration : 1h 39mn
Overall bit rate : 2 362 Kbps
Writing application : VirtualDubMod 1.5.10.2 (build 2542/release)
Writing library : VirtualDub build 32839/release

Video
ID : 0
Format : MPEG-4 Visual
Format profile : Advanced Simple@L5
Format settings, BVOP : Yes
Format settings, QPel : No
Format settings, GMC : No warppoints
Format settings, Matrix : Custom
Codec ID : XVID
Codec ID/Hint : XviD
Duration : 1h 39mn
Bit rate : 1 905 Kbps
Width : 720 pixels
Height : 304 pixels
Display aspect ratio : 2.35:1
Frame rate : 23.976 fps
Color space : YUV
Chroma subsampling : 4:2:0
Bit depth : 8 bits
Scan type : Progressive
Bits/(Pixel*Frame) : 0.363
Stream size : 1.32 GiB (81%)
Writing library : XviD 1.2.1 (UTC 2008-12-04)

Audio
ID : 1
Format : AC-3
Format/Info : Audio Coding 3
Mode extension : CM (complete main)
Codec ID : 2000
Duration : 1h 39mn
Bit rate mode : Constant
Bit rate : 448 Kbps
Channel(s) : 6 channels
Channel positions : Front: L C R, Side: L R, LFE
Sampling rate : 48.0 KHz
Bit depth : 16 bits
Stream size : 319 MiB (19%)
Alignment : Split accross interleaves
Interleave, duration : 42 ms (1.00 video frame)
Interleave, preload duration : 500 ms




 
http://www.imdb.com/title/tt1243957/







Storyline

Elise (Angelina Jolie) sits next to an American tourist, Frank (Johnny Depp), on a train going to Venice. She has chosen him as a decoy, making believe that he is her lover who is wanted for police. Not only will they need to evade the police, but also the mobster whose money her lover stole

Users: 6.0/10 (20,992 votes) 194 reviews | Critics: 229 reviews Metascore: 37/100 (based on 37 reviews from Metacritic.com)


Director:
Florian Henckel von Donnersmarck
Writers:
Florian Henckel von Donnersmarck (screenplay), Christopher McQuarrie (screenplay), and 2 more credits »
Stars:
Johnny Depp, Angelina Jolie and Paul Bettany 


Source used

The Tourist 2010 BluRay 720p x264 DTS-MySiLU - Thanks

I hardcoded the english subs for the foreign speaking parts .
Along the lines of my The Mechanic encode ive gone for quite a high bitrate and video and sound are top quality

Enjoy if your not bored to tears with it



Greetz to Imagine ,Flawl3ss ,Santi ,Vision ,Kingdom, BDK, TOXiC, iNK, THC, Ez, Rx,
